<svg width="486" height="136" viewBox="0 0 486 136" fill="none" xmlns="http://www.w3.org/2000/svg">
<path d="M180.591 103.352V78.6822C180.591 76.8695 180.278 75.304 179.652 73.9856C179.026 72.6672 178.07 71.6455 176.784 70.9204C175.499 70.1953 173.868 69.8328 171.89 69.8328C170.143 69.8328 168.611 70.1294 167.292 70.7227C166.007 71.3159 165.018 72.1564 164.326 73.244C163.634 74.2987 163.288 75.5182 163.288 76.9025H150.187C150.187 74.6942 150.714 72.6013 151.769 70.6238C152.823 68.6133 154.323 66.8335 156.267 65.2844C158.245 63.7024 160.602 62.4664 163.337 61.5765C166.106 60.6866 169.204 60.2417 172.632 60.2417C176.686 60.2417 180.295 60.9338 183.459 62.3181C186.656 63.6694 189.16 65.7129 190.973 68.4485C192.819 71.1841 193.742 74.6283 193.742 78.7811V102.116C193.742 104.786 193.907 107.077 194.236 108.988C194.599 110.867 195.126 112.498 195.818 113.883V114.723H182.519C181.893 113.372 181.415 111.658 181.086 109.581C180.756 107.472 180.591 105.396 180.591 103.352ZM182.42 82.1429L182.519 89.9048H174.263C172.22 89.9048 170.423 90.119 168.874 90.5475C167.325 90.943 166.056 91.5363 165.067 92.3273C164.079 93.0853 163.337 94.0082 162.843 95.0958C162.348 96.1505 162.101 97.3535 162.101 98.7048C162.101 100.023 162.398 101.21 162.991 102.265C163.617 103.319 164.507 104.16 165.661 104.786C166.847 105.379 168.232 105.676 169.814 105.676C172.121 105.676 174.131 105.214 175.845 104.291C177.559 103.336 178.894 102.182 179.85 100.831C180.805 99.4794 181.316 98.194 181.382 96.9745L185.14 102.611C184.678 103.962 183.986 105.396 183.063 106.912C182.14 108.428 180.954 109.845 179.504 111.163C178.053 112.482 176.306 113.569 174.263 114.426C172.22 115.283 169.847 115.712 167.144 115.712C163.683 115.712 160.585 115.02 157.849 113.635C155.114 112.251 152.955 110.356 151.373 107.95C149.791 105.544 149 102.808 149 99.743C149 96.9086 149.527 94.4037 150.582 92.2284C151.637 90.0531 153.202 88.2239 155.279 86.7407C157.355 85.2246 159.926 84.0875 162.991 83.3295C166.089 82.5384 169.632 82.1429 173.62 82.1429H182.42ZM224.421 105.429C226.267 105.429 227.915 105.066 229.365 104.341C230.815 103.616 231.969 102.594 232.826 101.276C233.716 99.9573 234.194 98.4247 234.26 96.6779H246.57C246.504 100.303 245.482 103.55 243.505 106.417C241.527 109.285 238.89 111.559 235.594 113.24C232.332 114.888 228.673 115.712 224.619 115.712C220.499 115.712 216.907 115.02 213.842 113.635C210.776 112.251 208.222 110.323 206.179 107.851C204.168 105.379 202.652 102.512 201.63 99.2487C200.641 95.9857 200.147 92.4921 200.147 88.7677V87.1857C200.147 83.4613 200.641 79.9676 201.63 76.7047C202.652 73.4418 204.168 70.5743 206.179 68.1024C208.222 65.6305 210.776 63.7024 213.842 62.3181C216.907 60.9338 220.483 60.2417 224.57 60.2417C228.887 60.2417 232.678 61.0821 235.941 62.7631C239.236 64.444 241.807 66.817 243.653 69.8822C245.532 72.9474 246.504 76.5564 246.57 80.7092H234.26C234.194 78.7976 233.765 77.0837 232.974 75.5676C232.183 74.0515 231.063 72.832 229.612 71.9092C228.162 70.9863 226.399 70.5249 224.322 70.5249C222.114 70.5249 220.269 70.9863 218.785 71.9092C217.335 72.832 216.198 74.1009 215.374 75.7159C214.583 77.298 214.023 79.0778 213.693 81.0553C213.397 82.9999 213.248 85.0433 213.248 87.1857V88.7677C213.248 90.943 213.397 93.0194 213.693 94.9969C214.023 96.9745 214.583 98.7543 215.374 100.336C216.198 101.885 217.335 103.121 218.785 104.044C220.269 104.967 222.147 105.429 224.421 105.429ZM276.261 115.712C272.207 115.712 268.565 115.053 265.335 113.734C262.105 112.416 259.353 110.587 257.079 108.247C254.838 105.874 253.107 103.121 251.888 99.9902C250.701 96.8262 250.108 93.4314 250.108 89.8059V87.8284C250.108 83.7085 250.701 79.9676 251.888 76.6058C253.074 73.2111 254.755 70.2942 256.93 67.8552C259.106 65.4163 261.71 63.5376 264.742 62.2192C267.774 60.9009 271.119 60.2417 274.778 60.2417C278.568 60.2417 281.913 60.8844 284.814 62.1698C287.714 63.4222 290.137 65.202 292.081 67.5092C294.026 69.8163 295.492 72.5848 296.481 75.8148C297.47 79.0118 297.964 82.5549 297.964 86.4441V91.9318H256.041V82.934H285.11V81.9452C285.044 79.8688 284.649 77.9736 283.924 76.2598C283.199 74.5129 282.078 73.1287 280.562 72.1069C279.046 71.0522 277.085 70.5249 274.679 70.5249C272.734 70.5249 271.037 70.9534 269.587 71.8103C268.169 72.6343 266.983 73.8208 266.027 75.3699C265.104 76.886 264.412 78.6987 263.951 80.8081C263.489 82.9175 263.259 85.2576 263.259 87.8284V89.8059C263.259 92.0471 263.555 94.1235 264.148 96.0352C264.775 97.9468 265.681 99.6112 266.868 101.028C268.087 102.413 269.537 103.5 271.218 104.291C272.932 105.05 274.877 105.429 277.052 105.429C279.788 105.429 282.259 104.901 284.468 103.847C286.709 102.759 288.653 101.16 290.301 99.0509L296.877 105.874C295.756 107.521 294.24 109.103 292.328 110.62C290.45 112.136 288.176 113.372 285.506 114.327C282.836 115.25 279.755 115.712 276.261 115.712ZM333.093 100.089C333.093 98.9685 332.797 97.9633 332.204 97.0734C331.61 96.1835 330.49 95.376 328.842 94.6509C327.227 93.8928 324.854 93.1842 321.723 92.525C318.954 91.9318 316.4 91.1902 314.06 90.3003C311.72 89.4104 309.709 88.3392 308.028 87.0868C306.347 85.8014 305.029 84.3018 304.073 82.5879C303.15 80.8411 302.689 78.8306 302.689 76.5564C302.689 74.3481 303.167 72.2717 304.122 70.3271C305.078 68.3496 306.463 66.6193 308.275 65.1361C310.088 63.62 312.296 62.4335 314.9 61.5765C317.504 60.6866 320.437 60.2417 323.7 60.2417C328.248 60.2417 332.154 60.9833 335.417 62.4664C338.713 63.9496 341.234 65.993 342.981 68.5968C344.728 71.1676 345.601 74.068 345.601 77.298H332.55C332.55 75.8807 332.22 74.5953 331.561 73.4418C330.935 72.2882 329.962 71.3654 328.644 70.6732C327.326 69.9481 325.661 69.5856 323.651 69.5856C321.838 69.5856 320.305 69.8822 319.053 70.4755C317.833 71.0687 316.911 71.8433 316.284 72.7991C315.658 73.7549 315.345 74.8096 315.345 75.9631C315.345 76.8201 315.51 77.5946 315.839 78.2867C316.202 78.9459 316.779 79.5557 317.57 80.116C318.361 80.6763 319.432 81.1871 320.783 81.6486C322.168 82.11 323.865 82.5549 325.875 82.9834C329.863 83.7744 333.341 84.8291 336.307 86.1475C339.306 87.4329 341.646 89.1467 343.327 91.2891C345.008 93.4314 345.849 96.167 345.849 99.4958C345.849 101.869 345.338 104.044 344.316 106.022C343.294 107.966 341.811 109.664 339.866 111.114C337.922 112.564 335.598 113.701 332.896 114.525C330.193 115.316 327.144 115.712 323.75 115.712C318.839 115.712 314.686 114.838 311.291 113.092C307.896 111.312 305.325 109.071 303.579 106.368C301.832 103.632 300.958 100.798 300.958 97.8644H313.466C313.565 99.9408 314.126 101.605 315.147 102.858C316.169 104.11 317.454 105.017 319.003 105.577C320.585 106.104 322.25 106.368 323.997 106.368C325.974 106.368 327.639 106.104 328.99 105.577C330.341 105.017 331.363 104.275 332.055 103.352C332.747 102.396 333.093 101.309 333.093 100.089ZM382.164 100.089C382.164 98.9685 381.867 97.9633 381.274 97.0734C380.681 96.1835 379.56 95.376 377.912 94.6509C376.297 93.8928 373.924 93.1842 370.793 92.525C368.025 91.9318 365.47 91.1902 363.13 90.3003C360.79 89.4104 358.78 88.3392 357.099 87.0868C355.418 85.8014 354.099 84.3018 353.144 82.5879C352.221 80.8411 351.759 78.8306 351.759 76.5564C351.759 74.3481 352.237 72.2717 353.193 70.3271C354.149 68.3496 355.533 66.6193 357.346 65.1361C359.159 63.62 361.367 62.4335 363.971 61.5765C366.574 60.6866 369.508 60.2417 372.771 60.2417C377.319 60.2417 381.225 60.9833 384.488 62.4664C387.784 63.9496 390.305 65.993 392.052 68.5968C393.799 71.1676 394.672 74.068 394.672 77.298H381.62C381.62 75.8807 381.291 74.5953 380.631 73.4418C380.005 72.2882 379.033 71.3654 377.715 70.6732C376.396 69.9481 374.732 69.5856 372.721 69.5856C370.909 69.5856 369.376 69.8822 368.124 70.4755C366.904 71.0687 365.981 71.8433 365.355 72.7991C364.729 73.7549 364.416 74.8096 364.416 75.9631C364.416 76.8201 364.58 77.5946 364.91 78.2867C365.273 78.9459 365.849 79.5557 366.64 80.116C367.431 80.6763 368.503 81.1871 369.854 81.6486C371.238 82.11 372.936 82.5549 374.946 82.9834C378.934 83.7744 382.411 84.8291 385.378 86.1475C388.377 87.4329 390.717 89.1467 392.398 91.2891C394.079 93.4314 394.919 96.167 394.919 99.4958C394.919 101.869 394.408 104.044 393.387 106.022C392.365 107.966 390.882 109.664 388.937 111.114C386.993 112.564 384.669 113.701 381.966 114.525C379.264 115.316 376.215 115.712 372.82 115.712C367.909 115.712 363.756 114.838 360.362 113.092C356.967 111.312 354.396 109.071 352.649 106.368C350.902 103.632 350.029 100.798 350.029 97.8644H362.537C362.636 99.9408 363.196 101.605 364.218 102.858C365.24 104.11 366.525 105.017 368.074 105.577C369.656 106.104 371.321 106.368 373.067 106.368C375.045 106.368 376.709 106.104 378.061 105.577C379.412 105.017 380.434 104.275 381.126 103.352C381.818 102.396 382.164 101.309 382.164 100.089ZM399.495 88.5205V87.4823C399.495 83.5602 400.056 79.9512 401.176 76.6553C402.297 73.3264 403.928 70.4425 406.071 68.0035C408.213 65.5646 410.833 63.6694 413.931 62.3181C417.029 60.9338 420.556 60.2417 424.511 60.2417C428.532 60.2417 432.092 60.9338 435.19 62.3181C438.321 63.6694 440.958 65.5646 443.1 68.0035C445.242 70.4425 446.874 73.3264 447.994 76.6553C449.115 79.9512 449.675 83.5602 449.675 87.4823V88.5205C449.675 92.4097 449.115 96.0187 447.994 99.3475C446.874 102.644 445.242 105.527 443.1 107.999C440.958 110.438 438.337 112.333 435.239 113.685C432.141 115.036 428.598 115.712 424.61 115.712C420.655 115.712 417.112 115.036 413.981 113.685C410.85 112.333 408.213 110.438 406.071 107.999C403.928 105.527 402.297 102.644 401.176 99.3475C400.056 96.0187 399.495 92.4097 399.495 88.5205ZM412.547 87.4823V88.5205C412.547 90.8606 412.778 93.0524 413.239 95.0958C413.701 97.1393 414.409 98.9355 415.365 100.485C416.321 102.034 417.557 103.253 419.073 104.143C420.622 105 422.468 105.429 424.61 105.429C426.719 105.429 428.532 105 430.048 104.143C431.564 103.253 432.8 102.034 433.756 100.485C434.745 98.9355 435.47 97.1393 435.931 95.0958C436.393 93.0524 436.624 90.8606 436.624 88.5205V87.4823C436.624 85.1752 436.393 83.0164 435.931 81.0059C435.47 78.9624 434.745 77.1661 433.756 75.6171C432.8 74.035 431.548 72.7991 429.999 71.9092C428.483 70.9863 426.653 70.5249 424.511 70.5249C422.402 70.5249 420.589 70.9863 419.073 71.9092C417.557 72.7991 416.321 74.035 415.365 75.6171C414.409 77.1661 413.701 78.9624 413.239 81.0059C412.778 83.0164 412.547 85.1752 412.547 87.4823ZM469.182 72.1564V114.723H456.13V61.2305H468.49L469.182 72.1564ZM485.447 60.8844L485.249 73.0463C484.524 72.9144 483.7 72.8155 482.777 72.7496C481.887 72.6837 481.047 72.6508 480.256 72.6508C478.245 72.6508 476.482 72.9309 474.966 73.4912C473.45 74.0186 472.181 74.7931 471.159 75.8148C470.17 76.8365 469.412 78.089 468.885 79.5721C468.358 81.0223 468.061 82.6703 467.995 84.516L465.177 84.1699C465.177 80.7751 465.523 77.6276 466.215 74.7272C466.908 71.8268 467.913 69.2889 469.231 67.1136C470.55 64.9384 472.197 63.2574 474.175 62.0709C476.186 60.8514 478.493 60.2417 481.096 60.2417C481.821 60.2417 482.596 60.3076 483.42 60.4394C484.277 60.5383 484.953 60.6866 485.447 60.8844Z" fill="black"/>
<path d="M160.986 26.039V45.7228H154.943V20.9578H160.643L160.986 26.039ZM160.093 32.4477H158.239C158.239 30.7234 158.445 29.1365 158.857 27.6869C159.284 26.2373 159.91 24.9785 160.734 23.9104C161.558 22.827 162.573 21.9878 163.778 21.3927C164.999 20.7976 166.41 20.5 168.013 20.5C169.126 20.5 170.149 20.6679 171.08 21.0036C172.01 21.324 172.811 21.8352 173.483 22.5371C174.169 23.2237 174.696 24.124 175.062 25.2379C175.428 26.3365 175.611 27.6564 175.611 29.1975V45.7228H169.569V29.8155C169.569 28.6558 169.401 27.7479 169.065 27.0918C168.745 26.4357 168.28 25.9779 167.669 25.7185C167.059 25.4439 166.326 25.3065 165.472 25.3065C164.526 25.3065 163.71 25.4973 163.023 25.8787C162.351 26.245 161.795 26.7561 161.352 27.4123C160.925 28.0684 160.604 28.8237 160.391 29.6782C160.192 30.5327 160.093 31.4558 160.093 32.4477ZM175.154 31.3261L172.659 31.7839C172.674 30.2275 172.888 28.7703 173.3 27.4123C173.712 26.039 174.314 24.8411 175.108 23.8188C175.917 22.7812 176.916 21.9725 178.106 21.3927C179.312 20.7976 180.7 20.5 182.272 20.5C183.493 20.5 184.591 20.6755 185.568 21.0264C186.56 21.3621 187.406 21.9038 188.108 22.6515C188.81 23.3839 189.344 24.3376 189.711 25.5125C190.092 26.6875 190.283 28.1218 190.283 29.8155V45.7228H184.194V29.7926C184.194 28.5872 184.027 27.664 183.691 27.0232C183.37 26.3823 182.905 25.9398 182.295 25.6956C181.684 25.4362 180.967 25.3065 180.143 25.3065C179.304 25.3065 178.572 25.4668 177.946 25.7872C177.336 26.0924 176.817 26.5196 176.39 27.0689C175.978 27.6182 175.665 28.2591 175.451 28.9915C175.253 29.7087 175.154 30.4869 175.154 31.3261ZM205.425 46.1806C203.548 46.1806 201.862 45.8754 200.366 45.265C198.871 44.6547 197.597 43.8078 196.544 42.7244C195.506 41.6258 194.705 40.3517 194.141 38.9021C193.591 37.4373 193.317 35.8656 193.317 34.1872V33.2716C193.317 31.3643 193.591 29.6324 194.141 28.076C194.69 26.5044 195.468 25.154 196.475 24.0248C197.482 22.8956 198.688 22.0259 200.092 21.4155C201.495 20.8052 203.044 20.5 204.738 20.5C206.493 20.5 208.042 20.7976 209.384 21.3927C210.727 21.9725 211.849 22.7965 212.749 23.8646C213.649 24.9327 214.328 26.2144 214.786 27.7098C215.244 29.1899 215.473 30.8302 215.473 32.6308V35.1713H196.063V31.0057H209.522V30.5479C209.491 29.5866 209.308 28.7092 208.972 27.9158C208.637 27.1071 208.118 26.4662 207.416 25.9932C206.714 25.5049 205.806 25.2608 204.692 25.2608C203.792 25.2608 203.006 25.4591 202.335 25.8559C201.679 26.2373 201.129 26.7866 200.687 27.5038C200.26 28.2057 199.939 29.0449 199.725 30.0215C199.512 30.9981 199.405 32.0814 199.405 33.2716V34.1872C199.405 35.2248 199.542 36.1861 199.817 37.0711C200.107 37.9561 200.527 38.7266 201.076 39.3828C201.64 40.0236 202.312 40.5272 203.09 40.8934C203.883 41.2443 204.784 41.4198 205.791 41.4198C207.057 41.4198 208.202 41.1757 209.224 40.6874C210.262 40.1839 211.162 39.4438 211.925 38.4672L214.969 41.6258C214.45 42.3888 213.748 43.1212 212.863 43.8231C211.994 44.525 210.941 45.0972 209.705 45.5397C208.469 45.9669 207.042 46.1806 205.425 46.1806ZM232.857 39.8405V20.9578H238.946V45.7228H233.224L232.857 39.8405ZM233.636 34.7136L235.513 34.6678C235.513 36.331 235.329 37.8645 234.963 39.2683C234.597 40.6721 234.025 41.8928 233.247 42.9304C232.484 43.9528 231.515 44.7539 230.34 45.3337C229.165 45.8983 227.776 46.1806 226.174 46.1806C224.953 46.1806 223.84 46.0127 222.832 45.677C221.825 45.3261 220.956 44.7844 220.223 44.052C219.506 43.3043 218.949 42.3506 218.552 41.1909C218.156 40.016 217.957 38.6046 217.957 36.9566V20.9578H224V37.0024C224 37.8264 224.091 38.513 224.274 39.0623C224.473 39.6117 224.74 40.0618 225.076 40.4127C225.426 40.7484 225.831 40.9926 226.289 41.1452C226.762 41.2825 227.265 41.3512 227.799 41.3512C229.264 41.3512 230.416 41.0612 231.255 40.4814C232.11 39.8863 232.72 39.0929 233.086 38.101C233.453 37.094 233.636 35.9648 233.636 34.7136Z" fill="black"/>
<g clip-path="url(#clip0_1082_32)">
<path d="M46.3809 0C46.467 0.00206543 46.5528 0.00458906 46.6386 0.00780195C51.681 0.196215 60.883 8.43384 64.2561 12.0162C71.0926 19.2764 75.2423 28.4389 77.451 38.0893C78.7093 43.5879 78.466 49.3964 78.2308 55.0155C79.3215 52.6086 81.7957 50.3127 83.2624 47.9437C84.1698 46.4777 86.1154 43.0105 87.4575 42.2617C89.5587 41.0894 91.3896 43.064 92.8614 44.4864C108.653 59.7481 111.965 83.8259 103.534 103.061C98.6579 114.132 90.1859 123.231 79.4914 128.884C77.3238 130.014 73.8133 131.289 71.4674 132.204C59.92 136.185 47.3542 136.071 35.881 131.881C-1.53866 117.989 -12.4643 71.5894 16.4186 43.3605C19.2269 40.6158 21.9483 38.8551 25.0225 36.4748C29.3381 33.1798 33.077 29.1914 36.087 24.6725C39.6382 19.3893 40.8568 15.4212 42.2569 9.14228C42.7671 6.8547 43.1444 4.3078 43.94 2.10834C44.3827 0.884233 45.2665 0.49249 46.3809 0Z" fill="#FF482A"/>
<path d="M53.2304 62.9342C63.7958 61.8041 73.2757 69.4559 74.4006 80.0219C75.5256 90.5877 67.8695 100.064 57.303 101.184C46.7436 102.303 37.275 94.6534 36.1507 84.0945C35.0264 73.5355 42.672 64.0635 53.2304 62.9342Z" fill="#F5F5F4"/>
</g>
<defs>
<clipPath id="clip0_1082_32">
<rect width="109" height="136" fill="white"/>
</clipPath>
</defs>
</svg>
